<?xml version="1.0" encoding="utf-8"?>
<!-- Generator: Adobe Illustrator 19.1.0, SVG Export Plug-In . SVG Version: 6.00 Build 0)  -->
<svg version="1.1" id="Layer_1" xmlns="http://www.w3.org/2000/svg" xmlns:xlink="http://www.w3.org/1999/xlink" x="0px" y="0px"
	 viewBox="0 0 100 100" style="enable-background:new 0 0 100 100;" xml:space="preserve">
<style type="text/css">
	.st0{fill:#2C3549;}
	.st1{fill:#FFFFFF;}
	.st2{fill:#56585E;}
	.st3{fill:none;stroke:#FFFFFF;stroke-width:1.3;stroke-miterlimit:10;}
	.st4{fill:#8A8A8E;}
	.st5{fill:#F98B75;}
	.st6{fill:#FC9F8D;}
	.st7{fill:#FC7653;}
	.st8{fill:#7996B2;}
	.st9{fill:#2A405B;}
	.st10{fill:#4E6882;}
	.st11{fill-rule:evenodd;clip-rule:evenodd;fill:#FFFFFF;}
	.st12{opacity:0.9;}
	.st13{fill:#FFFDFD;}
	.st14{fill:#D6D6D8;}
	.st15{opacity:0.95;fill:#FCFCFC;}
	.st16{fill:#EBECED;}
	.st17{fill:#949399;stroke:#DEDFE0;stroke-width:0.5;}
	.st18{opacity:0.95;fill:#FC7653;}
</style>
<g>
	<circle class="st6" cx="50" cy="50" r="50"/>
	<g>
		<path class="st3" d="M91.4,61.8c0.1-1.8,0-5.3-3.1-6.1c-4.1-1.1-7.7-2.8-7.7-2.8c-0.6-1-0.7-2.7-0.7-2.7l-0.1,0
			c1.3-1.4,1.9-3.2,2.1-4.7c0.1,0.1,0.2,0.2,0.3,0.2c0.4,0,0.9-0.6,1.5-2.7c0.7-2.7,0-3.3-0.6-3.3c-0.1,0-0.2,0-0.3,0c0,0,0,0,0,0
			c1.8-7.6-2-7.9-2.6-7.9c-0.1,0-0.1,0-0.1,0c-0.3-1.4-2.1-2.9-4-2.9c-0.3,0-0.5,0-0.8,0.1C74.7,29,73.8,29,72.9,29
			c-2,0-4.1-0.2-4.1-0.2c-0.1,0.9,0.7,1.6,0.7,1.6c-4.6,2.8-2.7,9.2-2.7,9.2v0.1c-0.1,0-0.2,0-0.3,0c-0.6,0-1.3,0.5-0.6,3.3
			c0.6,2.2,1.1,2.7,1.5,2.7c0.1,0,0.2,0,0.3-0.1c0.2,1.5,0.8,3.2,2.1,4.6c0,0-0.1,2-0.8,2.9c0,0-3.5,1.6-7.6,2.7
			c-0.4,0.1-0.8,0.3-1.1,0.5c1.7,0.8,4.9,2.1,8.4,3c1.5,0.4,2.8,1.1,3.8,2.2c0.8,0.9,1.5,2,1.9,3.2c0.5,1.6,0.7,3.3,0.6,4.7
			c10-0.1,16-3.9,16-3.9C91.4,64.3,91.4,61.8,91.4,61.8L91.4,61.8z M26.2,64.5c0.4-1.3,1.1-2.4,1.9-3.2c1-1.1,2.3-1.8,3.8-2.2
			c3.6-0.9,6.8-2.2,8.4-2.9c-0.4-0.2-0.8-0.4-1.3-0.6c-4.1-1.1-7.7-2.8-7.7-2.8c-0.6-1-0.7-2.7-0.7-2.7l-0.1,0
			c1.3-1.4,1.9-3.2,2.1-4.7c0.1,0.1,0.2,0.2,0.3,0.2c0.4,0,0.9-0.6,1.5-2.7c0.7-2.7,0-3.3-0.6-3.3c-0.1,0-0.2,0-0.3,0c0,0,0,0,0,0
			c1.8-7.6-2-7.9-2.6-7.9c-0.1,0-0.1,0-0.1,0c-0.3-1.4-2.1-2.9-4-2.9c-0.3,0-0.5,0-0.8,0.1C25.5,29,24.6,29,23.7,29
			c-2,0-4.1-0.2-4.1-0.2c-0.1,0.9,0.7,1.6,0.7,1.6c-4.6,2.8-2.7,9.2-2.7,9.2v0.1c-0.1,0-0.2,0-0.3,0c-0.6,0-1.3,0.5-0.6,3.3
			c0.6,2.2,1.1,2.7,1.5,2.7c0.1,0,0.2,0,0.3-0.1c0.2,1.5,0.8,3.2,2.1,4.6c0,0-0.1,2-0.8,2.9c0,0-3.5,1.6-7.6,2.7
			c-3.1,0.8-3.2,4.4-3.1,6.1c0,0,0,2.5,0.4,3.5c0,0,6,3.9,16.1,3.9C25.5,67.9,25.6,66.2,26.2,64.5z M72.1,70L72.1,70
			c0,0,0.1,3.2-0.5,4.6c0,0-8,5.2-21.4,5.2l0-0.3l0,0.3c-13.4,0-21.4-5.2-21.4-5.2c-0.5-1.3-0.5-4.6-0.5-4.6c-0.2-2.3,0-7.1,4.1-8.1
			c5.5-1.4,10-3.5,10-3.5c0.9-1.2,1.1-3.8,1.1-3.8c-1.7-1.8-2.5-4.2-2.8-6.1c-0.1,0.1-0.2,0.1-0.4,0.1c-0.5,0-1.2-0.8-1.9-3.6
			c-0.9-3.6-0.1-4.3,0.8-4.3c0.2,0,0.2,0,0.4,0.1v-0.1c0,0-2.5-8.4,3.5-12.1c0,0-1.1-0.9-1-2.1c0,0,2.8,0.3,5.5,0.3
			c1.2,0,2.4-0.1,3.3-0.2c0.4-0.1,0.7-0.1,1.1-0.1c2.5,0.1,4.9,2,5.3,3.9c0,0,0,0,0.1,0c0.8,0,5.8,0.4,3.4,10.4c0,0,0,0,0,0
			c0.1,0,0.2,0,0.4,0c0.9,0,1.7,0.7,0.8,4.3c-0.8,2.9-1.4,3.6-2,3.6c-0.2,0-0.3-0.1-0.5-0.2c-0.3,2-1.1,4.3-2.8,6.2l0.1,0
			c0,0,0.1,2.3,0.9,3.6c0,0,4.7,2.4,10.2,3.8C72.1,62.9,72.3,67.7,72.1,70z"/>
	</g>
</g>
</svg>
