<svg id="Layer_1" xmlns="http://www.w3.org/2000/svg" viewBox="0 0 100 100"><style>.st0{fill:#2C3549;} .st1{fill:#FFFFFF;} .st2{fill:#56585E;} .st3{fill:none;stroke:#FFFFFF;stroke-width:1.3;stroke-miterlimit:10;} .st4{fill:#8A8A8E;} .st5{fill:#F98B75;} .st6{fill:#FC9F8D;} .st7{fill:#FC7653;} .st8{fill:#7996B2;} .st9{fill:#2A405B;} .st10{fill:#4E6882;} .st11{fill-rule:evenodd;clip-rule:evenodd;fill:#FFFFFF;} .st12{opacity:0.9;} .st13{fill:#FFFDFD;} .st14{fill:#D6D6D8;} .st15{opacity:0.95;fill:#FCFCFC;} .st16{fill:#EBECED;} .st17{fill:#949399;stroke:#DEDFE0;stroke-width:0.5;} .st18{opacity:0.95;fill:#FC7653;}</style><circle class="st5" cx="50.4" cy="50" r="50"/><path class="st1" d="M84.5 59.5c0 2.4-2 4.4-4.4 4.4-2.4 0-4.4-2-4.4-4.4V52c0-2.4 2-4.4 4.4-4.4 2.4 0 4.4 2 4.4 4.4v7.5zM24.9 52v7.5c0 2.4-2 4.4-4.4 4.4S16 62 16 59.5V52c0-2.4 2-4.4 4.4-4.4 2.5-.1 4.5 1.9 4.5 4.4zm20.8 24.5c.4 0 .7.3.7.7 0 .4-.3.7-.7.7-.4 0-.7-.3-.7-.7 0-.4.3-.7.7-.7zm35.7-31.6C80.7 28.2 66.9 14.8 50 14.8S19.3 28.2 18.6 45c-3.1.8-5.4 3.6-5.4 7v7.5c0 3.6 2.6 6.6 6.1 7.1 1.3 4.6 5.6 12 13.8 12h9.4c.5 1.2 1.7 2.1 3.2 2.1 1.9 0 3.4-1.5 3.4-3.4s-1.5-3.4-3.4-3.4c-1.4 0-2.6.9-3.2 2.1h-9.4c-6.9 0-9.9-6.4-10.9-9.4 3.1-.8 5.4-3.6 5.4-7V52c0-3.6-2.7-6.6-6.2-7.1.7-15.2 13.3-27.3 28.6-27.3 15.4 0 27.9 12.2 28.6 27.4-3.3.7-5.8 3.6-5.8 7v7.5c0 4 3.2 7.2 7.2 7.2s7.2-3.2 7.2-7.2V52c.1-3.5-2.4-6.4-5.8-7.1z"/></svg>