<?xml version="1.0" encoding="utf-8"?>
<!-- Generator: Adobe Illustrator 19.1.0, SVG Export Plug-In . SVG Version: 6.00 Build 0)  -->
<svg version="1.1" id="Layer_1" xmlns="http://www.w3.org/2000/svg" xmlns:xlink="http://www.w3.org/1999/xlink" x="0px" y="0px"
	 viewBox="0 0 100 100" style="enable-background:new 0 0 100 100;" xml:space="preserve">
<style type="text/css">
	.st0{fill:#2C3549;}
	.st1{fill:#FFFFFF;}
	.st2{fill:#56585E;}
	.st3{fill:none;stroke:#FFFFFF;stroke-width:1.3;stroke-miterlimit:10;}
	.st4{fill:#8A8A8E;}
	.st5{fill:#F98B75;}
	.st6{fill:#FC9F8D;}
	.st7{fill:#FC7653;}
	.st8{fill:#7996B2;}
	.st9{fill:#2A405B;}
	.st10{fill:#4E6882;}
	.st11{fill-rule:evenodd;clip-rule:evenodd;fill:#FFFFFF;}
	.st12{opacity:0.9;}
	.st13{fill:#FFFDFD;}
	.st14{fill:#D6D6D8;}
	.st15{opacity:0.95;fill:#FCFCFC;}
	.st16{fill:#EBECED;}
	.st17{fill:#949399;stroke:#DEDFE0;stroke-width:0.5;}
	.st18{opacity:0.95;fill:#FC7653;}
</style>
<g>
	<circle class="st5" cx="50.4" cy="50" r="50"/>
	<path class="st1" d="M84.5,59.5c0,2.4-2,4.4-4.4,4.4c-2.4,0-4.4-2-4.4-4.4V52c0-2.4,2-4.4,4.4-4.4c2.4,0,4.4,2,4.4,4.4V59.5z
		 M24.9,52v7.5c0,2.4-2,4.4-4.4,4.4S16,62,16,59.5V52c0-2.4,2-4.4,4.4-4.4C22.9,47.5,24.9,49.5,24.9,52z M45.7,76.5
		c0.4,0,0.7,0.3,0.7,0.7c0,0.4-0.3,0.7-0.7,0.7c-0.4,0-0.7-0.3-0.7-0.7C45,76.8,45.3,76.5,45.7,76.5z M81.4,44.9
		c-0.7-16.7-14.5-30.1-31.4-30.1c-16.9,0-30.7,13.4-31.4,30.2c-3.1,0.8-5.4,3.6-5.4,7v7.5c0,3.6,2.6,6.6,6.1,7.1
		c1.3,4.6,5.6,12,13.8,12h9.4c0.5,1.2,1.7,2.1,3.2,2.1c1.9,0,3.4-1.5,3.4-3.4c0-1.9-1.5-3.4-3.4-3.4c-1.4,0-2.6,0.9-3.2,2.1h-9.4
		c-6.9,0-9.9-6.4-10.9-9.4c3.1-0.8,5.4-3.6,5.4-7V52c0-3.6-2.7-6.6-6.2-7.1c0.7-15.2,13.3-27.3,28.6-27.3
		c15.4,0,27.9,12.2,28.6,27.4c-3.3,0.7-5.8,3.6-5.8,7v7.5c0,4,3.2,7.2,7.2,7.2s7.2-3.2,7.2-7.2V52C87.3,48.5,84.8,45.6,81.4,44.9z"
		/>
</g>
</svg>
