<svg id="Layer_1" xmlns="http://www.w3.org/2000/svg" viewBox="0 0 100 100"><style>.st0{fill:#2C3549;} .st1{fill:#FFFFFF;} .st2{fill:#56585E;} .st3{fill:none;stroke:#FFFFFF;stroke-width:1.3;stroke-miterlimit:10;} .st4{fill:#8A8A8E;} .st5{fill:#F98B75;} .st6{fill:#FC9F8D;} .st7{fill:#FC7653;} .st8{fill:#7996B2;} .st9{fill:#2A405B;} .st10{fill:#4E6882;} .st11{fill-rule:evenodd;clip-rule:evenodd;fill:#FFFFFF;} .st12{opacity:0.9;} .st13{fill:#FFFDFD;} .st14{fill:#D6D6D8;} .st15{opacity:0.95;fill:#FCFCFC;} .st16{fill:#EBECED;} .st17{fill:#949399;stroke:#DEDFE0;stroke-width:0.5;} .st18{opacity:0.95;fill:#FC7653;}</style><path class="st12 st13" d="M54.5 39.2c0-1.8.2-2.8 3-2.8h3.8v-6.8h-6.1c-7.3 0-9.8 3.4-9.8 9.2v4.4h-4.5V50h4.5v20.5h9.1V50h6.1l.8-6.8h-6.9v-4zM50 0C22.4 0 0 22.4 0 50s22.4 50 50 50 50-22.4 50-50S77.6 0 50 0zm0 95.5C24.9 95.5 4.5 75.1 4.5 50S24.9 4.5 50 4.5 95.5 24.9 95.5 50 75.1 95.5 50 95.5z" id="Facebook_Circle_6_"/></svg>