<?xml version="1.0" encoding="utf-8"?>
<!-- Generator: Adobe Illustrator 19.1.0, SVG Export Plug-In . SVG Version: 6.00 Build 0)  -->
<svg version="1.1" id="Layer_1" xmlns="http://www.w3.org/2000/svg" xmlns:xlink="http://www.w3.org/1999/xlink" x="0px" y="0px"
	 viewBox="0 0 100 100" style="enable-background:new 0 0 100 100;" xml:space="preserve">
<style type="text/css">
	.st0{fill:#2C3549;}
	.st1{fill:#FFFFFF;}
	.st2{fill:#56585E;}
	.st3{fill:none;stroke:#FFFFFF;stroke-width:1.3;stroke-miterlimit:10;}
	.st4{fill:#8A8A8E;}
	.st5{fill:#F98B75;}
	.st6{fill:#FC9F8D;}
	.st7{fill:#FC7653;}
	.st8{fill:#7996B2;}
	.st9{fill:#2A405B;}
	.st10{fill:#4E6882;}
	.st11{fill-rule:evenodd;clip-rule:evenodd;fill:#FFFFFF;}
	.st12{opacity:0.9;}
	.st13{fill:#FFFDFD;}
	.st14{fill:#D6D6D8;}
	.st15{opacity:0.95;fill:#FCFCFC;}
	.st16{fill:#EBECED;}
	.st17{fill:#949399;stroke:#DEDFE0;stroke-width:0.5;}
	.st18{opacity:0.95;fill:#FC7653;}
</style>
<g>
	<circle class="st4" cx="50" cy="50" r="50"/>
	<path class="st1" d="M47.7,49.6c0-2.7,0.1-4.9,0-7.1c-0.1-1.8-1.5-3.2-3.2-3.3c-1.8-0.1-3.6,1-3.7,2.6c-0.2,2,0,4,0,6.1
		C43.3,47.5,45.5,47.8,47.7,49.6z M57.9,48.2c0-1.8,0-3.7,0-5.5c0-2-1.4-3.5-3.4-3.6c-2-0.1-3.6,1.4-3.7,3.4
		c-0.1,3.6-0.1,7.3,0,10.9c0,2,1.7,3.6,3.6,3.5c1.9-0.1,3.4-1.6,3.4-3.6C58,51.8,57.9,50,57.9,48.2z M30.4,58.8
		c0.1,0,0.2,0.1,0.3,0.1c2.1-2.8,4.3-5.7,6.4-8.5c0.2-0.3,0.3-0.7,0.3-1.1c0-7.5,0-15,0-22.6c0-2-2-3.6-3.9-3.3
		c-1.9,0.3-3.1,1.8-3.1,3.9c0,10.2,0,20.3,0,30.5C30.4,58.1,30.4,58.4,30.4,58.8z M41.2,63.5c1.4-1.9,3.2-3.9,4.6-6.1
		c0.6-1,1-2.4,0.9-3.5c-0.1-1.7-1.4-2.7-3-3c-1.7-0.4-3.1,0.2-4.2,1.6c-2.3,3-4.3,6.2-6.8,9c-2.2,2.5-2.5,5.2-2,8.3
		c1.4,8.3,9.4,15.1,17.7,15c0.9,0,1.3-0.3,1.7-1.1c2.3-5.7,1.3-11.4-3.1-15.7C45.2,66.3,43.2,65,41.2,63.5z M52.9,84.3
		c7.9-0.7,15.2-8.7,15.3-17.1c0.1-11.1,0.1-22.3,0-33.4c0-0.8-0.3-1.7-0.8-2.4c-0.9-1.2-2.3-1.7-3.8-1.2c-1.5,0.5-2.4,1.7-2.4,3.5
		c0,6.4,0,12.8,0,19.2c0,5-3.9,8.2-8.4,7c-1.2-0.3-2.3-1.1-3.5-1.8c-1.2,1.6-2.4,3.3-3.7,4.9C52.9,68.5,55.6,75.4,52.9,84.3z
		 M40.7,37c3.3-1.3,6.1-1.1,8.6,1.4c2.5-2.4,5.3-2.8,8.7-1.4c0-1.2,0-2.2,0-3.3c0.1-3.6,2.6-6.4,5.9-6.7c3.5-0.3,6.5,1.7,7.3,5.1
		c0.1,0.5,0.1,1.1,0.1,1.7c0,11,0,22.1,0,33.1c0,11.1-9.7,20.6-20.8,20.8c-8.4,0.1-15.1-2.8-19.8-9.8c-2.3-3.4-3.3-7.1-3.3-11.2
		c0-13.1,0-26.2,0-39.3c0-4.1,2.6-7,6.4-7c3.9,0,6.7,2.7,6.9,6.8c0.1,1.6,0,3.3,0,4.9C40.7,33.6,40.7,35.1,40.7,37z"/>
</g>
</svg>
