<?xml version="1.0" encoding="utf-8"?>
<!-- Generator: Adobe Illustrator 19.1.0, SVG Export Plug-In . SVG Version: 6.00 Build 0)  -->
<svg version="1.1" id="Layer_1" xmlns="http://www.w3.org/2000/svg" xmlns:xlink="http://www.w3.org/1999/xlink" x="0px" y="0px"
	 viewBox="0 0 380 33" style="enable-background:new 0 0 380 33;" xml:space="preserve">
<style type="text/css">
	.st0{fill:#2C3549;}
	.st1{fill:#FFFFFF;}
	.st2{fill:#56585E;}
	.st3{fill:none;stroke:#FFFFFF;stroke-width:1.3;stroke-miterlimit:10;}
	.st4{fill:#8A8A8E;}
	.st5{fill:#F98B75;}
	.st6{fill:#FC9F8D;}
	.st7{fill:#FC7653;}
	.st8{fill:#7996B2;}
	.st9{fill:#2A405B;}
	.st10{fill:#4E6882;}
	.st11{fill-rule:evenodd;clip-rule:evenodd;fill:#FFFFFF;}
	.st12{opacity:0.9;}
	.st13{fill:#FFFDFD;}
	.st14{fill:#D6D6D8;}
	.st15{opacity:0.95;fill:#FCFCFC;}
	.st16{fill:#EBECED;}
	.st17{fill:#949399;stroke:#DEDFE0;stroke-width:0.5;}
	.st18{opacity:0.95;fill:#FC7653;}
</style>
<g>
	<circle class="st14" cx="122.7" cy="16.5" r="16.4"/>
	<path class="st14" d="M0,0.7h23.8v6.2H6.9v6.4h14.9v6.2H6.9v6.6H24v6.2H0V0.7z"/>
	<path class="st14" d="M33.3,0.7h6.4l14.8,19.4V0.7h6.8v31.5h-5.9l-15.3-20v20h-6.8V0.7z"/>
	<path class="st14" d="M70.5,16.6L70.5,16.6c0-9,6.8-16.4,16.4-16.4c5.9,0,9.5,2,12.4,4.9L95,10.2c-2.4-2.2-4.9-3.6-8.1-3.6
		c-5.3,0-9.1,4.4-9.1,9.8v0.1c0,5.4,3.7,9.9,9.1,9.9c3.6,0,5.8-1.4,8.3-3.7l4.4,4.5c-3.2,3.5-6.8,5.6-12.9,5.6
		C77.4,32.8,70.5,25.6,70.5,16.6z"/>
	<path class="st14" d="M148.7,0.7h14.4c4,0,7.1,1.1,9.2,3.2c1.8,1.8,2.7,4.2,2.7,7.2v0.1c0,5.1-2.7,8.3-6.8,9.8l7.7,11.3h-8.1
		l-6.8-10.1h-5.4v10.1h-6.9V0.7z M162.7,16c3.4,0,5.3-1.8,5.3-4.5v-0.1c0-3-2.1-4.5-5.4-4.5h-6.9v9H162.7z"/>
	<path class="st14" d="M184.4,0.7h23.8v6.2h-16.9v6.4h14.9v6.2h-14.9v6.6h17.1v6.2h-24V0.7z"/>
	<path class="st15" d="M228.4,0.5h6.4l13.5,31.7h-7.2l-2.9-7.1h-13.3l-2.9,7.1h-7.1L228.4,0.5z M235.7,19.1l-4.2-10.2l-4.2,10.2
		H235.7z"/>
	<path class="st15" d="M256.3,0.7h6.9V26h15.7v6.3h-22.6V0.7z"/>
	<path class="st15" d="M287.2,0.7H311v6.2h-16.9v6.4H309v6.2h-14.9v6.6h17.1v6.2h-24V0.7z"/>
	<path class="st15" d="M320.5,0.7h14.4c4,0,7.1,1.1,9.2,3.2c1.8,1.8,2.7,4.2,2.7,7.2v0.1c0,5.1-2.7,8.3-6.8,9.8l7.7,11.3h-8.1
		l-6.8-10.1h-5.4v10.1h-6.9V0.7z M334.5,16c3.4,0,5.3-1.8,5.3-4.5v-0.1c0-3-2.1-4.5-5.4-4.5h-6.9v9H334.5z"/>
	<path class="st15" d="M363.5,7.1h-9.6V0.7H380v6.4h-9.6v25.1h-6.9V7.1z"/>
	<path class="st16" d="M130.9,21L130.9,21c-3.5-4.5-0.9-11.5-6.6-12.5c0-0.8-0.7-1.5-1.5-1.5c-0.8,0-1.5,0.6-1.5,1.5
		c-5.8,1-3.2,8-6.6,12.5l0,0c-0.2,0.2-0.3,0.4-0.3,0.6c0,2.1,7.5,2.2,8.4,2.2c0.9,0,8.4-0.1,8.4-2.2C131.1,21.4,131,21.1,130.9,21z
		 M122.7,7.7c0.4,0,0.8,0.3,0.8,0.7c-0.3,0-0.5,0-0.8,0c-0.3,0-0.6,0-0.8,0C122,8,122.3,7.7,122.7,7.7z M122.7,22.8
		c-4.3,0-7-0.7-7.4-1.2c0.4-0.5,3-1.2,7.4-1.2c4.4,0,7,0.7,7.4,1.2C129.7,22,127.1,22.8,122.7,22.8z"/>
	<path class="st17" d="M129.8,22.2c0,0.9-3.2,1.6-7.1,1.6c-3.9,0-7.1-0.7-7.1-1.6c0-0.9,3.2-1.6,7.1-1.6
		C126.6,20.6,129.8,21.3,129.8,22.2z"/>
</g>
</svg>
