<?xml version="1.0" encoding="utf-8"?>
<!-- Generator: Adobe Illustrator 19.1.0, SVG Export Plug-In . SVG Version: 6.00 Build 0)  -->
<svg version="1.1" id="Layer_1" xmlns="http://www.w3.org/2000/svg" xmlns:xlink="http://www.w3.org/1999/xlink" x="0px" y="0px"
	 viewBox="0 0 100 100" style="enable-background:new 0 0 100 100;" xml:space="preserve">
<style type="text/css">
	.st0{fill:#2C3549;}
	.st1{fill:#FFFFFF;}
	.st2{fill:#56585E;}
	.st3{fill:none;stroke:#FFFFFF;stroke-width:1.3;stroke-miterlimit:10;}
	.st4{fill:#8A8A8E;}
	.st5{fill:#F98B75;}
	.st6{fill:#FC9F8D;}
	.st7{fill:#FC7653;}
	.st8{fill:#7996B2;}
	.st9{fill:#2A405B;}
	.st10{fill:#4E6882;}
	.st11{fill-rule:evenodd;clip-rule:evenodd;fill:#FFFFFF;}
	.st12{opacity:0.9;}
	.st13{fill:#FFFDFD;}
	.st14{fill:#D6D6D8;}
	.st15{opacity:0.95;fill:#FCFCFC;}
	.st16{fill:#EBECED;}
	.st17{fill:#949399;stroke:#DEDFE0;stroke-width:0.5;}
	.st18{opacity:0.95;fill:#FC7653;}
</style>
<g>
	<circle class="st0" cx="50.3" cy="50.2" r="50"/>
	<g>
		<path class="st1" d="M35.7,76h28.6V22.6H35.7V76z M66.8,78.5H33.2V20.1h33.5V78.5z"/>
		<path class="st1" d="M66.8,76h9.9V32.5h-9.9V76z M79.2,78.5H64.3V30h14.9V78.5z"/>
		<path class="st1" d="M23.3,76h9.9V32.5h-9.9V76z M35.7,78.5H20.8V30h14.9V78.5z"/>
		<path class="st1" d="M45,76H55v-7.5H45V76z M57.5,78.5H42.5V66.1h14.9V78.5z"/>
		<rect x="70.5" y="36.2" class="st1" width="2.5" height="6.2"/>
		<rect x="58.7" y="28.8" class="st1" width="2.5" height="6.2"/>
		<rect x="52.1" y="28.8" class="st1" width="2.5" height="6.2"/>
		<rect x="45.4" y="28.8" class="st1" width="2.5" height="6.2"/>
		<rect x="38.8" y="28.8" class="st1" width="2.5" height="6.2"/>
		<rect x="58.7" y="41.2" class="st1" width="2.5" height="6.2"/>
		<rect x="52.1" y="41.2" class="st1" width="2.5" height="6.2"/>
		<rect x="45.4" y="41.2" class="st1" width="2.5" height="6.2"/>
		<rect x="38.8" y="41.2" class="st1" width="2.5" height="6.2"/>
		<rect x="58.7" y="53.6" class="st1" width="2.5" height="6.2"/>
		<rect x="52.1" y="53.6" class="st1" width="2.5" height="6.2"/>
		<rect x="45.4" y="53.6" class="st1" width="2.5" height="6.2"/>
		<rect x="38.8" y="53.6" class="st1" width="2.5" height="6.2"/>
		<rect x="70.5" y="46.2" class="st1" width="2.5" height="6.2"/>
		<rect x="70.5" y="56.1" class="st1" width="2.5" height="6.2"/>
		<rect x="70.5" y="66.1" class="st1" width="2.5" height="6.2"/>
		<rect x="27" y="36.2" class="st1" width="2.5" height="6.2"/>
		<rect x="27" y="46.2" class="st1" width="2.5" height="6.2"/>
		<rect x="27" y="56.1" class="st1" width="2.5" height="6.2"/>
		<rect x="27" y="66.1" class="st1" width="2.5" height="6.2"/>
	</g>
</g>
</svg>
