<?xml version="1.0" encoding="utf-8"?>
<!-- Generator: Adobe Illustrator 19.1.0, SVG Export Plug-In . SVG Version: 6.00 Build 0)  -->
<svg version="1.1" id="Layer_1" xmlns="http://www.w3.org/2000/svg" xmlns:xlink="http://www.w3.org/1999/xlink" x="0px" y="0px"
	 viewBox="0 0 100 100" style="enable-background:new 0 0 100 100;" xml:space="preserve">
<style type="text/css">
	.st0{fill:#2C3549;}
	.st1{fill:#FFFFFF;}
	.st2{fill:#56585E;}
	.st3{fill:none;stroke:#FFFFFF;stroke-width:1.3;stroke-miterlimit:10;}
	.st4{fill:#8A8A8E;}
	.st5{fill:#F98B75;}
	.st6{fill:#FC9F8D;}
	.st7{fill:#FC7653;}
	.st8{fill:#7996B2;}
	.st9{fill:#2A405B;}
	.st10{fill:#4E6882;}
	.st11{fill-rule:evenodd;clip-rule:evenodd;fill:#FFFFFF;}
	.st12{opacity:0.9;}
	.st13{fill:#FFFDFD;}
	.st14{fill:#D6D6D8;}
	.st15{opacity:0.95;fill:#FCFCFC;}
	.st16{fill:#EBECED;}
	.st17{fill:#949399;stroke:#DEDFE0;stroke-width:0.5;}
	.st18{opacity:0.95;fill:#FC7653;}
</style>
<g>
	<circle class="st7" cx="50" cy="50" r="50"/>
	<path class="st1" d="M67.6,71.4c-5.3,2.1-11,3.3-17.1,3.3c-6.9,0-13.5-1.5-19.3-4.2c0-0.5,0-0.9,0-1c0-0.2,0-0.3,0-0.3h0
		c0-0.2,0-0.5,0-0.8c0-2,0.4-4.9,3.1-6c2.2,2.1,4.7,3.8,7.5,4.9c2.8,1.1,5.7,1.7,8.7,1.7c4.1,0,8.1-1.1,11.7-3.1l1.6,1.6L67.6,71.4z
		 M44.2,58c0.1-0.4,0.2-0.9,0.3-1.3c-1.2-1.6-1.8-3.6-2.1-5.2c-0.5,0-1.1-0.7-1.7-3c-0.8-3-0.1-3.6,0.7-3.6c0.1,0,0.1,0,0.1,0
		c-0.6-1.7-0.6-3.3-0.2-4.8c0.4-1.8,1.4-3.2,2.4-4.3c0.7-0.7,1.4-1.4,2.2-1.9c0.7-0.5,1.4-0.9,2.2-1.1c0.6-0.2,1.3-0.3,2-0.4
		c0.3,0,0.6,0,0.9,0c1.7,0,3.1,0.5,4.1,1.1c1.8,1,2.4,2.3,2.4,2.3s4.4,0.3,2.5,9.7c0.6,0.2,1,1,0.3,3.5c-0.7,2.4-1.3,3-1.7,3
		c-0.1,0-0.2,0-0.3-0.1c-0.3,1.5-0.8,3.3-1.9,4.8c0.1,0.4,0.1,0.8,0.3,1.3c-1.9,1-4.1,1.5-6.3,1.5C48.2,59.5,46.1,59,44.2,58z
		 M31.7,59.5c-0.4,0.3-0.9,0.6-1.2,0.9c-0.8,0.8-1.5,1.7-2,2.8c-0.6,1.4-0.9,3.1-1,4.9c-5.6-0.1-10.9-1.4-15.6-3.6
		c0-0.4,0-0.7,0-0.8c0,0,0-0.1,0-0.1c0-0.2,0-0.5,0-0.8c0-1.8,0.4-4.5,3.1-5.2c4.1-1,7.5-2.6,7.5-2.6c0.4-0.6,0.6-1.5,0.7-2.1
		c-1-1.4-1.5-3-1.7-4.4c-0.4,0-0.9-0.6-1.4-2.5c-0.7-2.7,0-3.1,0.7-3c-0.5-1.4-0.5-2.8-0.2-4.1c0.3-1.5,1.2-2.7,2.1-3.6
		c0.6-0.6,1.2-1.1,1.9-1.6c0.6-0.4,1.2-0.7,1.8-1c0.5-0.2,1.1-0.3,1.7-0.3c1.3-0.1,2.4,0.1,3.2,0.4c-0.9,1.4-1.7,2.8-2.4,4.4
		c-1.1,2.8-1.7,5.7-1.7,8.7c0,3,0.6,5.9,1.7,8.7C29.6,56.4,30.6,58,31.7,59.5z M89.1,63.6C89.1,63.7,89.1,63.7,89.1,63.6
		c0,0.2,0,0.5,0,0.9c-2.8,1.3-5.7,2.2-8.8,2.9l-9.8-9.8c2.2-3.8,3.3-8.1,3.1-12.6c-0.2-4.3-1.5-8.3-3.8-11.8
		c0.3-0.2,0.7-0.3,1.1-0.5c0.5-0.2,1.1-0.3,1.7-0.3c1.8-0.2,3.2,0.3,4.2,0.9c1.5,0.8,2.1,1.9,2.1,1.9s3.7,0.3,2.1,8.2
		c0.5,0.2,0.9,0.9,0.3,3c-0.7,2.6-1.4,2.7-1.8,2.4c-0.2,1.3-0.7,2.8-1.6,4c0.1,0.6,0.3,1.6,0.7,2.2c0,0,3.4,1.5,7.5,2.6
		c2.7,0.7,3.1,3.4,3.1,5.2C89.1,63.1,89.1,63.4,89.1,63.6z M62.2,57.7c-3.3,3.3-7.5,4.9-11.8,4.9c-4.3,0-8.5-1.6-11.8-4.9
		c-6.5-6.5-6.5-17.1,0-23.6c3.3-3.3,7.5-4.9,11.8-4.9c4.3,0,8.5,1.6,11.8,4.9C68.7,40.7,68.7,51.2,62.2,57.7z M64.9,64.3l12.6,12.6
		c0.5,0.5,1.3,0.8,2,0.8c0.7,0,1.4-0.3,2-0.8c1.1-1.1,1.1-2.8,0-3.9l0,0L68.1,59.8l-0.8,0.8l-1.7-1.7c6.7-7.9,6.3-19.7-1.1-27.1
		c-3.9-3.9-9-5.9-14.2-5.9c-5.1,0-10.2,2-14.2,5.9c-7.8,7.8-7.8,20.5,0,28.3c3.9,3.9,9,5.9,14.2,5.9c4.6,0,9.2-1.6,12.9-4.7l1.7,1.7
		l-0.8,0.8l0,0L64.9,64.3z"/>
</g>
</svg>
