<?xml version="1.0" encoding="utf-8"?>
<!-- Generator: Adobe Illustrator 19.1.0, SVG Export Plug-In . SVG Version: 6.00 Build 0)  -->
<svg version="1.1" id="Layer_1" xmlns="http://www.w3.org/2000/svg" xmlns:xlink="http://www.w3.org/1999/xlink" x="0px" y="0px"
	 viewBox="0 0 100 100" style="enable-background:new 0 0 100 100;" xml:space="preserve">
<style type="text/css">
	.st0{fill:#2C3549;}
	.st1{fill:#FFFFFF;}
	.st2{fill:#56585E;}
	.st3{fill:none;stroke:#FFFFFF;stroke-width:1.3;stroke-miterlimit:10;}
	.st4{fill:#8A8A8E;}
	.st5{fill:#F98B75;}
	.st6{fill:#FC9F8D;}
	.st7{fill:#FC7653;}
	.st8{fill:#7996B2;}
	.st9{fill:#2A405B;}
	.st10{fill:#4E6882;}
	.st11{fill-rule:evenodd;clip-rule:evenodd;fill:#FFFFFF;}
	.st12{opacity:0.9;}
	.st13{fill:#FFFDFD;}
	.st14{fill:#D6D6D8;}
	.st15{opacity:0.95;fill:#FCFCFC;}
	.st16{fill:#EBECED;}
	.st17{fill:#949399;stroke:#DEDFE0;stroke-width:0.5;}
	.st18{opacity:0.95;fill:#FC7653;}
</style>
<g>
	<circle class="st10" cx="50" cy="50" r="50"/>
	<g>
		<path class="st11" d="M43.8,76.2c-5.7-5.7-11.6-11.6-17.3-17.3c4.9-16,26.3-15.3,31.2-31.2C63.4,33.4,69.3,39.2,75,45
			C70.1,60.9,48.7,60.2,43.8,76.2z M77.5,42.5L60.1,25.2c-0.9-0.9-2.1-1.2-3.3-0.9c-0.6,0.2-1.2,0.5-1.6,0.9
			c-0.4,0.4-0.7,0.9-0.9,1.4c-0.8,2.5-2.1,4.8-4.2,6.8c-2.7,2.7-6.2,4.7-9.9,6.9c-3.9,2.3-8,4.6-11.3,8c-2.8,2.8-4.7,6-5.9,9.6
			c-0.4,1.2,0,2.6,0.9,3.5l17.3,17.3c0.9,0.9,2.1,1.2,3.3,0.9c0.6-0.2,1.2-0.5,1.6-0.9c0.4-0.4,0.7-0.9,0.9-1.4
			c0.8-2.5,2.1-4.8,4.2-6.8c2.7-2.7,6.2-4.7,9.9-6.9c3.9-2.3,8-4.6,11.3-8c2.8-2.8,4.7-6,5.9-9.6C78.7,44.8,78.4,43.4,77.5,42.5z"/>
		<path class="st11" d="M55.4,54.6c-0.2,0.3-0.3,0.5-0.5,0.8c-1-1-1.9-2.1-2.9-3.2c0.2-0.1,0.5-0.2,0.8-0.3c0.3-0.1,0.6-0.2,0.8-0.2
			c0.3,0,0.6,0,0.9,0c0.3,0.1,0.5,0.2,0.8,0.5c0.2,0.2,0.4,0.5,0.5,0.8c0.1,0.3,0.1,0.6,0,0.8C55.7,54.1,55.6,54.3,55.4,54.6z
			 M47.2,51.2c-0.5,0-0.9-0.1-1.3-0.5c-0.2-0.2-0.3-0.3-0.3-0.6c-0.1-0.2-0.1-0.5-0.1-0.7c0-0.3,0.1-0.5,0.2-0.8
			c0.1-0.3,0.3-0.5,0.6-0.8c0.9,0.9,1.8,1.8,2.6,2.8C48.3,50.9,47.7,51.1,47.2,51.2z M56.9,50c-0.6-0.5-1.1-0.8-1.7-1
			c-0.6-0.2-1.1-0.2-1.7-0.2c-0.6,0-1.2,0.2-1.7,0.4c-0.6,0.2-1.2,0.5-1.8,0.8c-0.9-1.1-1.9-2.1-2.8-3.1c0.4-0.4,0.8-0.6,1.2-0.6
			c0.4,0,0.8,0,1.1,0.1c0.4,0.1,0.7,0.2,1,0.2c0.3,0.1,0.6,0,0.8-0.2c0.3-0.2,0.4-0.5,0.4-0.8c0-0.3-0.1-0.7-0.4-1
			c-0.4-0.4-0.8-0.7-1.3-0.8c-0.5-0.1-1.1-0.1-1.6,0c-0.5,0.1-1.1,0.3-1.6,0.6c-0.5,0.3-0.9,0.6-1.2,0.9c-0.1-0.1-0.2-0.2-0.3-0.3
			c-0.1-0.1-0.3-0.2-0.5-0.2c-0.2,0-0.3,0.1-0.5,0.2c-0.1,0.1-0.2,0.3-0.2,0.5c0,0.2,0.1,0.3,0.2,0.4c0.1,0.1,0.2,0.2,0.3,0.3
			c-0.4,0.5-0.8,1.1-1.1,1.8c-0.3,0.6-0.5,1.2-0.5,1.8c-0.1,0.6,0,1.2,0.2,1.7c0.2,0.5,0.5,1,1,1.4c0.8,0.7,1.8,1,2.9,0.9
			c1.1-0.1,2.3-0.4,3.6-1.1c1,1.2,2,2.4,3.1,3.4c-0.4,0.4-0.8,0.6-1.1,0.6c-0.3,0.1-0.6,0.1-0.9,0c-0.3-0.1-0.5-0.2-0.8-0.4
			c-0.2-0.2-0.5-0.3-0.7-0.4c-0.2-0.1-0.5-0.2-0.7-0.2c-0.2,0-0.5,0.1-0.8,0.3c-0.3,0.2-0.4,0.5-0.4,0.9c0,0.3,0.2,0.7,0.4,1
			c0.3,0.3,0.7,0.6,1.1,0.8c0.5,0.2,1,0.4,1.6,0.4c0.6,0,1.2,0,1.8-0.3c0.6-0.2,1.3-0.7,1.9-1.3c0.3,0.3,0.6,0.6,0.9,0.8
			c0.1,0.1,0.3,0.2,0.5,0.2c0.2,0,0.3-0.1,0.5-0.2c0.1-0.2,0.2-0.3,0.2-0.5c0-0.2-0.1-0.3-0.2-0.4c-0.3-0.2-0.6-0.5-0.9-0.8
			c0.5-0.6,0.9-1.3,1.2-2c0.3-0.7,0.5-1.3,0.6-1.9c0.1-0.6,0-1.1-0.2-1.6C57.7,50.8,57.4,50.4,56.9,50z"/>
		<path class="st11" d="M48.5,62.6L48.5,62.6c-1.1,0.8-2.1,1.7-3.1,2.7c-0.9,0.9-1.8,1.9-2.5,2.9l-1.2,1.6l0,0
			c-0.2,0.3-0.2,0.8,0.1,1.1c0.3,0.3,0.9,0.3,1.2,0c0.1-0.1,0.1-0.1,0.1-0.2l1.1-1.5c0.7-0.9,1.5-1.9,2.4-2.7c1-1,1.9-1.7,3-2.6l0,0
			c0,0,0.1,0,0.1-0.1c0.3-0.3,0.3-0.9,0-1.2C49.4,62.3,48.8,62.3,48.5,62.6z"/>
		<path class="st11" d="M54.9,37.5c-0.9,0.9-1.9,1.7-2.9,2.5c-0.1,0-0.1,0.1-0.2,0.2c-0.3,0.3-0.3,0.9,0,1.2c0.3,0.3,0.9,0.3,1.2,0
			l0,0c1.1-0.8,2.1-1.7,3.1-2.7c0.9-0.9,1.8-1.9,2.5-2.9l1.2-1.6l0,0c0.3-0.3,0.3-0.9,0-1.2c-0.3-0.3-0.9-0.3-1.2,0
			c-0.1,0.1-0.1,0.1-0.2,0.2l-1.1,1.6C56.5,35.7,55.7,36.6,54.9,37.5z"/>
	</g>
</g>
</svg>
