<svg id="Layer_1" xmlns="http://www.w3.org/2000/svg" viewBox="0 0 100 100"><style>.st0{fill:#2C3549;} .st1{fill:#FFFFFF;} .st2{fill:#56585E;} .st3{fill:none;stroke:#FFFFFF;stroke-width:1.3;stroke-miterlimit:10;} .st4{fill:#8A8A8E;} .st5{fill:#F98B75;} .st6{fill:#FC9F8D;} .st7{fill:#FC7653;} .st8{fill:#7996B2;} .st9{fill:#2A405B;} .st10{fill:#4E6882;} .st11{fill-rule:evenodd;clip-rule:evenodd;fill:#FFFFFF;} .st12{opacity:0.9;} .st13{fill:#FFFDFD;} .st14{fill:#D6D6D8;} .st15{opacity:0.95;fill:#FCFCFC;} .st16{fill:#EBECED;} .st17{fill:#949399;stroke:#DEDFE0;stroke-width:0.5;} .st18{opacity:0.95;fill:#FC7653;}</style><circle class="st10" cx="50" cy="50" r="50"/><path class="st11" d="M43.8 76.2L26.5 58.9c4.9-16 26.3-15.3 31.2-31.2C63.4 33.4 69.3 39.2 75 45c-4.9 15.9-26.3 15.2-31.2 31.2zm33.7-33.7L60.1 25.2c-.9-.9-2.1-1.2-3.3-.9-.6.2-1.2.5-1.6.9-.4.4-.7.9-.9 1.4-.8 2.5-2.1 4.8-4.2 6.8-2.7 2.7-6.2 4.7-9.9 6.9-3.9 2.3-8 4.6-11.3 8-2.8 2.8-4.7 6-5.9 9.6-.4 1.2 0 2.6.9 3.5l17.3 17.3c.9.9 2.1 1.2 3.3.9.6-.2 1.2-.5 1.6-.9.4-.4.7-.9.9-1.4.8-2.5 2.1-4.8 4.2-6.8 2.7-2.7 6.2-4.7 9.9-6.9 3.9-2.3 8-4.6 11.3-8 2.8-2.8 4.7-6 5.9-9.6.4-1.2.1-2.6-.8-3.5z"/><path class="st11" d="M55.4 54.6c-.2.3-.3.5-.5.8-1-1-1.9-2.1-2.9-3.2.2-.1.5-.2.8-.3.3-.1.6-.2.8-.2h.9c.3.1.5.2.8.5.2.2.4.5.5.8.1.3.1.6 0 .8-.1.3-.2.5-.4.8zm-8.2-3.4c-.5 0-.9-.1-1.3-.5-.2-.2-.3-.3-.3-.6-.1-.2-.1-.5-.1-.7 0-.3.1-.5.2-.8.1-.3.3-.5.6-.8.9.9 1.8 1.8 2.6 2.8-.6.3-1.2.5-1.7.6zm9.7-1.2c-.6-.5-1.1-.8-1.7-1-.6-.2-1.1-.2-1.7-.2-.6 0-1.2.2-1.7.4-.6.2-1.2.5-1.8.8-.9-1.1-1.9-2.1-2.8-3.1.4-.4.8-.6 1.2-.6.4 0 .8 0 1.1.1.4.1.7.2 1 .2.3.1.6 0 .8-.2.3-.2.4-.5.4-.8 0-.3-.1-.7-.4-1-.4-.4-.8-.7-1.3-.8-.5-.1-1.1-.1-1.6 0s-1.1.3-1.6.6-.9.6-1.2.9l-.3-.3c-.1-.1-.3-.2-.5-.2s-.3.1-.5.2c-.1.1-.2.3-.2.5s.1.3.2.4l.3.3c-.4.5-.8 1.1-1.1 1.8-.3.6-.5 1.2-.5 1.8-.1.6 0 1.2.2 1.7s.5 1 1 1.4c.8.7 1.8 1 2.9.9 1.1-.1 2.3-.4 3.6-1.1 1 1.2 2 2.4 3.1 3.4-.4.4-.8.6-1.1.6-.3.1-.6.1-.9 0-.3-.1-.5-.2-.8-.4-.2-.2-.5-.3-.7-.4-.2-.1-.5-.2-.7-.2-.2 0-.5.1-.8.3-.3.2-.4.5-.4.9 0 .3.2.7.4 1 .3.3.7.6 1.1.8.5.2 1 .4 1.6.4.6 0 1.2 0 1.8-.3.6-.2 1.3-.7 1.9-1.3.3.3.6.6.9.8.1.1.3.2.5.2s.3-.1.5-.2c.1-.2.2-.3.2-.5s-.1-.3-.2-.4c-.3-.2-.6-.5-.9-.8.5-.6.9-1.3 1.2-2 .3-.7.5-1.3.6-1.9.1-.6 0-1.1-.2-1.6-.1-.3-.4-.7-.9-1.1zm-8.4 12.6c-1.1.8-2.1 1.7-3.1 2.7-.9.9-1.8 1.9-2.5 2.9l-1.2 1.6c-.2.3-.2.8.1 1.1.3.3.9.3 1.2 0 .1-.1.1-.1.1-.2l1.1-1.5c.7-.9 1.5-1.9 2.4-2.7 1-1 1.9-1.7 3-2.6 0 0 .1 0 .1-.1.3-.3.3-.9 0-1.2-.3-.3-.9-.3-1.2 0zm6.4-25.1c-.9.9-1.9 1.7-2.9 2.5-.1 0-.1.1-.2.2-.3.3-.3.9 0 1.2.3.3.9.3 1.2 0 1.1-.8 2.1-1.7 3.1-2.7.9-.9 1.8-1.9 2.5-2.9l1.2-1.6c.3-.3.3-.9 0-1.2-.3-.3-.9-.3-1.2 0l-.2.2-1.1 1.6-2.4 2.7z"/></svg>