<?xml version="1.0" encoding="utf-8"?>
<!-- Generator: Adobe Illustrator 19.1.0, SVG Export Plug-In . SVG Version: 6.00 Build 0)  -->
<svg version="1.1" id="Layer_1" xmlns="http://www.w3.org/2000/svg" xmlns:xlink="http://www.w3.org/1999/xlink" x="0px" y="0px"
	 viewBox="0 0 100 100" style="enable-background:new 0 0 100 100;" xml:space="preserve">
<style type="text/css">
	.st0{fill:#2C3549;}
	.st1{fill:#FFFFFF;}
	.st2{fill:#56585E;}
	.st3{fill:none;stroke:#FFFFFF;stroke-width:1.3;stroke-miterlimit:10;}
	.st4{fill:#8A8A8E;}
	.st5{fill:#F98B75;}
	.st6{fill:#FC9F8D;}
	.st7{fill:#FC7653;}
	.st8{fill:#7996B2;}
	.st9{fill:#2A405B;}
	.st10{fill:#4E6882;}
	.st11{fill-rule:evenodd;clip-rule:evenodd;fill:#FFFFFF;}
	.st12{opacity:0.9;}
	.st13{fill:#FFFDFD;}
	.st14{fill:#D6D6D8;}
	.st15{opacity:0.95;fill:#FCFCFC;}
	.st16{fill:#EBECED;}
	.st17{fill:#949399;stroke:#DEDFE0;stroke-width:0.5;}
	.st18{opacity:0.95;fill:#FC7653;}
</style>
<g>
	<g id="LinkedIn_Circle_6_" class="st12">
		<g>
			<path class="st13" d="M50,0C22.4,0,0,22.4,0,50c0,27.6,22.4,50,50,50c27.6,0,50-22.4,50-50C100,22.4,77.6,0,50,0z M50,95.5
				C24.9,95.5,4.5,75.1,4.5,50C4.5,24.9,24.9,4.5,50,4.5c25.1,0,45.5,20.4,45.5,45.5C95.5,75.1,75.1,95.5,50,95.5z M31.8,68.2h9.1
				v-25h-9.1V68.2z M36.3,31.8c-2.5,0-4.5,2-4.5,4.6c0,2.5,2,4.6,4.5,4.6s4.5-2,4.5-4.6C40.9,33.9,38.8,31.8,36.3,31.8z M62.2,43.1
				c-6.7,0-7.6,4.1-7.6,4.1l0-4h-9.1v25h9.1V54.5c0,0,0-4.6,3.9-4.6c2.2,0,3,2,3,4.6v13.6h9.1V54.5C70.5,47.4,67.4,43.1,62.2,43.1z"
				/>
		</g>
	</g>
</g>
</svg>
