<svg id="Layer_1" xmlns="http://www.w3.org/2000/svg" viewBox="0 0 100 100"><style>.st0{fill:#2C3549;} .st1{fill:#FFFFFF;} .st2{fill:#56585E;} .st3{fill:none;stroke:#FFFFFF;stroke-width:1.3;stroke-miterlimit:10;} .st4{fill:#8A8A8E;} .st5{fill:#F98B75;} .st6{fill:#FC9F8D;} .st7{fill:#FC7653;} .st8{fill:#7996B2;} .st9{fill:#2A405B;} .st10{fill:#4E6882;} .st11{fill-rule:evenodd;clip-rule:evenodd;fill:#FFFFFF;} .st12{opacity:0.9;} .st13{fill:#FFFDFD;} .st14{fill:#D6D6D8;} .st15{opacity:0.95;fill:#FCFCFC;} .st16{fill:#EBECED;} .st17{fill:#949399;stroke:#DEDFE0;stroke-width:0.5;} .st18{opacity:0.95;fill:#FC7653;}</style><path class="st7" d="M14.8 4.8c-5.9 3.6-9.2 8.3-9.9 14.3-1.5 12.5 8.6 30.9 27 49.2 8.1 8.1 28.9 26.9 46.4 26.9 7.3 0 12.8-3.3 17-10.1-.8-4.7-21.7-22.3-26.7-22.4-1.9.7-3.1 2.1-4.5 3.7-1.6 1.8-3.5 3.9-6.6 5-.5.2-1.1.3-1.7.3-6.3 0-18.3-11.3-23.9-19.2-3.1-4.4-4.2-7.7-3.4-10 1.1-3.1 3.2-5 5-6.6 1.6-1.4 2.9-2.6 3.7-4.5 0-1.7-3.9-8.6-11.1-16.8-6-6.7-10-9.5-11.3-9.8zM78.3 100C58.9 100 37 80.2 28.5 71.7 19.2 62.4-2.3 38.6.2 18.5 1.1 11 5.3 4.9 12.6.5c.6-.4 1.3-.5 2-.5 5.8 0 17.2 13.5 21.8 20 6.6 9.3 5.7 12 5.3 13-1.1 3.1-3.2 5-5 6.6-1.6 1.4-3 2.6-3.7 4.6-.1.5.5 3.1 4.7 8.2C44.3 60.5 53 67 55.7 67c2.1-.7 3.3-2.1 4.7-3.7 1.6-1.8 3.5-3.9 6.6-5 .4-.2.9-.2 1.5-.2 6.6 0 25.8 15.7 30.3 23.7.5.8 1.9 3.4.6 5.6-5 8.3-12.1 12.6-21.1 12.6z"/></svg>