<?xml version="1.0" encoding="utf-8"?>
<!-- Generator: Adobe Illustrator 19.1.0, SVG Export Plug-In . SVG Version: 6.00 Build 0)  -->
<svg version="1.1" id="Layer_1" xmlns="http://www.w3.org/2000/svg" xmlns:xlink="http://www.w3.org/1999/xlink" x="0px" y="0px"
	 viewBox="0 0 100 100" style="enable-background:new 0 0 100 100;" xml:space="preserve">
<style type="text/css">
	.st0{fill:#2C3549;}
	.st1{fill:#FFFFFF;}
	.st2{fill:#56585E;}
	.st3{fill:none;stroke:#FFFFFF;stroke-width:1.3;stroke-miterlimit:10;}
	.st4{fill:#8A8A8E;}
	.st5{fill:#F98B75;}
	.st6{fill:#FC9F8D;}
	.st7{fill:#FC7653;}
	.st8{fill:#7996B2;}
	.st9{fill:#2A405B;}
	.st10{fill:#4E6882;}
	.st11{fill-rule:evenodd;clip-rule:evenodd;fill:#FFFFFF;}
	.st12{opacity:0.9;}
	.st13{fill:#FFFDFD;}
	.st14{fill:#D6D6D8;}
	.st15{opacity:0.95;fill:#FCFCFC;}
	.st16{fill:#EBECED;}
	.st17{fill:#949399;stroke:#DEDFE0;stroke-width:0.5;}
	.st18{opacity:0.95;fill:#FC7653;}
</style>
<g>
	<circle class="st8" cx="50" cy="50" r="50"/>
	<g>
		<path class="st3" d="M63.3,33.3c0,7.6-5.8,13.8-13.1,13.8c-7.2,0-13.1-6.2-13.1-13.8S43,19.5,50.2,19.5
			C57.4,19.5,63.3,25.7,63.3,33.3"/>
		<path class="st3" d="M73.6,64.1c-0.5-4.6-1.9-10.9-3.8-14.1c-1.3-2.1-3.7-3.8-7.7-4.9l-4.4,9l-3.5-4.7c-1.3,0.4-2.6,0.5-4,0.5
			c-1.3,0-2.6-0.2-3.9-0.5l-3.5,4.7l-4.5-9c-4,1.1-6.5,2.9-7.8,5c-1.9,3.2-3.3,9.5-3.8,14.1c-0.1,0.8-0.3,3-0.3,3.3
			c0.8,7.2,11.8,12.9,23,13.1c0.2,0,0.4,0,0.7,0c0.2,0,0.4,0,0.7,0c10.9-0.1,22.2-5.9,23-13.1C73.9,67.1,73.7,65,73.6,64.1z"/>
	</g>
</g>
</svg>
