<?xml version="1.0" encoding="utf-8"?>
<!-- Generator: Adobe Illustrator 19.1.0, SVG Export Plug-In . SVG Version: 6.00 Build 0)  -->
<svg version="1.1" id="Layer_1" xmlns="http://www.w3.org/2000/svg" xmlns:xlink="http://www.w3.org/1999/xlink" x="0px" y="0px"
	 viewBox="0 0 100 100" style="enable-background:new 0 0 100 100;" xml:space="preserve">
<style type="text/css">
	.st0{fill:#2C3549;}
	.st1{fill:#FFFFFF;}
	.st2{fill:#56585E;}
	.st3{fill:none;stroke:#FFFFFF;stroke-width:1.3;stroke-miterlimit:10;}
	.st4{fill:#8A8A8E;}
	.st5{fill:#F98B75;}
	.st6{fill:#FC9F8D;}
	.st7{fill:#FC7653;}
	.st8{fill:#7996B2;}
	.st9{fill:#2A405B;}
	.st10{fill:#4E6882;}
	.st11{fill-rule:evenodd;clip-rule:evenodd;fill:#FFFFFF;}
	.st12{opacity:0.9;}
	.st13{fill:#FFFDFD;}
	.st14{fill:#D6D6D8;}
	.st15{opacity:0.95;fill:#FCFCFC;}
	.st16{fill:#EBECED;}
	.st17{fill:#949399;stroke:#DEDFE0;stroke-width:0.5;}
	.st18{opacity:0.95;fill:#FC7653;}
</style>
<g id="Twitter_Circle_6_" class="st12">
	<g>
		<path class="st13" d="M73.7,32.5c-1.8,1.1-3.8,1.8-5.9,2.2c-1.7-1.8-4.1-2.9-6.8-2.9c-5.1,0-9.3,4.1-9.3,9.2
			c0,0.7,0.1,1.4,0.2,2.1c-7.8-0.4-14.6-4-19.2-9.6c-0.8,1.4-1.3,2.9-1.3,4.6c0,3.2,1.6,6,4.1,7.6c-1.5,0-3-0.5-4.2-1.1
			c0,0,0,0.1,0,0.1c0,4.4,3.2,8.2,7.5,9c-0.8,0.2-1.6,0.3-2.5,0.3c-0.6,0-1.2-0.1-1.8-0.2c1.2,3.6,4.6,6.3,8.7,6.4
			c-3.2,2.5-7.2,3.9-11.6,3.9c-0.8,0-1.5,0-2.2-0.1c4.1,2.6,9,4.1,14.3,4.1c17.2,0,26.5-14,26.5-26.1c0-0.4,0-0.8,0-1.2
			c1.8-1.3,3.4-2.9,4.7-4.8c-1.7,0.7-3.5,1.2-5.4,1.4C71.6,36.4,73,34.6,73.7,32.5z M50,0C22.4,0,0,22.4,0,50c0,27.6,22.4,50,50,50
			s50-22.4,50-50C100,22.4,77.6,0,50,0z M50,95.5C24.9,95.5,4.5,75.1,4.5,50C4.5,24.9,24.9,4.5,50,4.5S95.5,24.9,95.5,50
			C95.5,75.1,75.1,95.5,50,95.5z"/>
	</g>
</g>
</svg>
