<svg id="Layer_1" xmlns="http://www.w3.org/2000/svg" viewBox="0 0 100 100"><style>.st0{fill:#2C3549;} .st1{fill:#FFFFFF;} .st2{fill:#56585E;} .st3{fill:none;stroke:#FFFFFF;stroke-width:1.3;stroke-miterlimit:10;} .st4{fill:#8A8A8E;} .st5{fill:#F98B75;} .st6{fill:#FC9F8D;} .st7{fill:#FC7653;} .st8{fill:#7996B2;} .st9{fill:#2A405B;} .st10{fill:#4E6882;} .st11{fill-rule:evenodd;clip-rule:evenodd;fill:#FFFFFF;} .st12{opacity:0.9;} .st13{fill:#FFFDFD;} .st14{fill:#D6D6D8;} .st15{opacity:0.95;fill:#FCFCFC;} .st16{fill:#EBECED;} .st17{fill:#949399;stroke:#DEDFE0;stroke-width:0.5;} .st18{opacity:0.95;fill:#FC7653;}</style><circle class="st6" cx="50" cy="50" r="50"/><path class="st3" d="M91.4 61.8c.1-1.8 0-5.3-3.1-6.1-4.1-1.1-7.7-2.8-7.7-2.8-.6-1-.7-2.7-.7-2.7h-.1c1.3-1.4 1.9-3.2 2.1-4.7.1.1.2.2.3.2.4 0 .9-.6 1.5-2.7.7-2.7 0-3.3-.6-3.3h-.3c1.8-7.6-2-7.9-2.6-7.9h-.1c-.3-1.4-2.1-2.9-4-2.9-.3 0-.5 0-.8.1h-2.4c-2 0-4.1-.2-4.1-.2-.1.9.7 1.6.7 1.6-4.6 2.8-2.7 9.2-2.7 9.2v.1h-.3c-.6 0-1.3.5-.6 3.3.6 2.2 1.1 2.7 1.5 2.7.1 0 .2 0 .3-.1.2 1.5.8 3.2 2.1 4.6 0 0-.1 2-.8 2.9 0 0-3.5 1.6-7.6 2.7-.4.1-.8.3-1.1.5 1.7.8 4.9 2.1 8.4 3 1.5.4 2.8 1.1 3.8 2.2.8.9 1.5 2 1.9 3.2.5 1.6.7 3.3.6 4.7 10-.1 16-3.9 16-3.9.4-1.2.4-3.7.4-3.7zm-65.2 2.7c.4-1.3 1.1-2.4 1.9-3.2 1-1.1 2.3-1.8 3.8-2.2 3.6-.9 6.8-2.2 8.4-2.9-.4-.2-.8-.4-1.3-.6-4.1-1.1-7.7-2.8-7.7-2.8-.6-1-.7-2.7-.7-2.7h-.1c1.3-1.4 1.9-3.2 2.1-4.7.1.1.2.2.3.2.4 0 .9-.6 1.5-2.7.7-2.7 0-3.3-.6-3.3h-.3c1.8-7.6-2-7.9-2.6-7.9h-.1c-.3-1.4-2.1-2.9-4-2.9-.3 0-.5 0-.8.1-.5.1-1.4.1-2.3.1-2 0-4.1-.2-4.1-.2-.1.9.7 1.6.7 1.6-4.6 2.8-2.7 9.2-2.7 9.2v.1h-.3c-.6 0-1.3.5-.6 3.3.6 2.2 1.1 2.7 1.5 2.7.1 0 .2 0 .3-.1.2 1.5.8 3.2 2.1 4.6 0 0-.1 2-.8 2.9 0 0-3.5 1.6-7.6 2.7-3.1.8-3.2 4.4-3.1 6.1 0 0 0 2.5.4 3.5 0 0 6 3.9 16.1 3.9-.1-1.4 0-3.1.6-4.8zM72.1 70s.1 3.2-.5 4.6c0 0-8 5.2-21.4 5.2v-.3.3c-13.4 0-21.4-5.2-21.4-5.2-.5-1.3-.5-4.6-.5-4.6-.2-2.3 0-7.1 4.1-8.1 5.5-1.4 10-3.5 10-3.5.9-1.2 1.1-3.8 1.1-3.8-1.7-1.8-2.5-4.2-2.8-6.1-.1.1-.2.1-.4.1-.5 0-1.2-.8-1.9-3.6-.9-3.6-.1-4.3.8-4.3.2 0 .2 0 .4.1v-.1s-2.5-8.4 3.5-12.1c0 0-1.1-.9-1-2.1 0 0 2.8.3 5.5.3 1.2 0 2.4-.1 3.3-.2.4-.1.7-.1 1.1-.1 2.5.1 4.9 2 5.3 3.9h.1c.8 0 5.8.4 3.4 10.4h.4c.9 0 1.7.7.8 4.3-.8 2.9-1.4 3.6-2 3.6-.2 0-.3-.1-.5-.2-.3 2-1.1 4.3-2.8 6.2h.1s.1 2.3.9 3.6c0 0 4.7 2.4 10.2 3.8 4.2.8 4.4 5.6 4.2 7.9z"/></svg>