<svg id="Layer_1" xmlns="http://www.w3.org/2000/svg" viewBox="0 0 100 100"><style>.st0{fill:#2C3549;} .st1{fill:#FFFFFF;} .st2{fill:#56585E;} .st3{fill:none;stroke:#FFFFFF;stroke-width:1.3;stroke-miterlimit:10;} .st4{fill:#8A8A8E;} .st5{fill:#F98B75;} .st6{fill:#FC9F8D;} .st7{fill:#FC7653;} .st8{fill:#7996B2;} .st9{fill:#2A405B;} .st10{fill:#4E6882;} .st11{fill-rule:evenodd;clip-rule:evenodd;fill:#FFFFFF;} .st12{opacity:0.9;} .st13{fill:#FFFDFD;} .st14{fill:#D6D6D8;} .st15{opacity:0.95;fill:#FCFCFC;} .st16{fill:#EBECED;} .st17{fill:#949399;stroke:#DEDFE0;stroke-width:0.5;} .st18{opacity:0.95;fill:#FC7653;}</style><circle class="st2" cx="50.3" cy="50" r="50"/><path class="st3" d="M23.6 31.1H30c1 8.6 3.3 16.2 6.4 21.9-6.6-3-11.7-11.5-12.8-21.9zm53.9 0c-1.1 10.2-6 18.5-12.5 21.8 3.1-5.7 5.4-13.2 6.4-21.8h6.1zM61.1 58.5C72.8 57 81.9 43.4 81.9 26.9H71.6c.1-1.8.2-3.6.2-5.5H29.5c0 1.9.1 3.7.2 5.5H19.1c0 16.7 9.3 30.3 21.1 31.6.8.9 1.6 1.7 2.4 2.4h-.4v4.3h4.2v10.7h-4.2v4.3H38v8.5h25.4v-8.5h-4.2v-4.3H55V65.1h4.2v-4.3h-.4c.7-.6 1.5-1.4 2.3-2.3z"/></svg>