<svg id="Layer_1" xmlns="http://www.w3.org/2000/svg" viewBox="0 0 100 100"><style>.st0{fill:#2C3549;} .st1{fill:#FFFFFF;} .st2{fill:#56585E;} .st3{fill:none;stroke:#FFFFFF;stroke-width:1.3;stroke-miterlimit:10;} .st4{fill:#8A8A8E;} .st5{fill:#F98B75;} .st6{fill:#FC9F8D;} .st7{fill:#FC7653;} .st8{fill:#7996B2;} .st9{fill:#2A405B;} .st10{fill:#4E6882;} .st11{fill-rule:evenodd;clip-rule:evenodd;fill:#FFFFFF;} .st12{opacity:0.9;} .st13{fill:#FFFDFD;} .st14{fill:#D6D6D8;} .st15{opacity:0.95;fill:#FCFCFC;} .st16{fill:#EBECED;} .st17{fill:#949399;stroke:#DEDFE0;stroke-width:0.5;} .st18{opacity:0.95;fill:#FC7653;}</style><circle class="st4" cx="50" cy="50" r="50"/><path class="st1" d="M47.7 49.6c0-2.7.1-4.9 0-7.1-.1-1.8-1.5-3.2-3.2-3.3-1.8-.1-3.6 1-3.7 2.6-.2 2 0 4 0 6.1 2.5-.4 4.7-.1 6.9 1.7zm10.2-1.4v-5.5c0-2-1.4-3.5-3.4-3.6-2-.1-3.6 1.4-3.7 3.4-.1 3.6-.1 7.3 0 10.9 0 2 1.7 3.6 3.6 3.5 1.9-.1 3.4-1.6 3.4-3.6.2-1.5.1-3.3.1-5.1zM30.4 58.8c.1 0 .2.1.3.1 2.1-2.8 4.3-5.7 6.4-8.5.2-.3.3-.7.3-1.1V26.7c0-2-2-3.6-3.9-3.3-1.9.3-3.1 1.8-3.1 3.9v31.5zm10.8 4.7c1.4-1.9 3.2-3.9 4.6-6.1.6-1 1-2.4.9-3.5-.1-1.7-1.4-2.7-3-3-1.7-.4-3.1.2-4.2 1.6-2.3 3-4.3 6.2-6.8 9-2.2 2.5-2.5 5.2-2 8.3 1.4 8.3 9.4 15.1 17.7 15 .9 0 1.3-.3 1.7-1.1C52.4 78 51.4 72.3 47 68c-1.8-1.7-3.8-3-5.8-4.5zm11.7 20.8c7.9-.7 15.2-8.7 15.3-17.1.1-11.1.1-22.3 0-33.4 0-.8-.3-1.7-.8-2.4-.9-1.2-2.3-1.7-3.8-1.2s-2.4 1.7-2.4 3.5v19.2c0 5-3.9 8.2-8.4 7-1.2-.3-2.3-1.1-3.5-1.8-1.2 1.6-2.4 3.3-3.7 4.9 7.3 5.5 10 12.4 7.3 21.3zM40.7 37c3.3-1.3 6.1-1.1 8.6 1.4 2.5-2.4 5.3-2.8 8.7-1.4v-3.3c.1-3.6 2.6-6.4 5.9-6.7 3.5-.3 6.5 1.7 7.3 5.1.1.5.1 1.1.1 1.7v33.1c0 11.1-9.7 20.6-20.8 20.8-8.4.1-15.1-2.8-19.8-9.8-2.3-3.4-3.3-7.1-3.3-11.2V27.4c0-4.1 2.6-7 6.4-7 3.9 0 6.7 2.7 6.9 6.8.1 1.6 0 3.3 0 4.9V37z"/></svg>