<svg id="Layer_1" xmlns="http://www.w3.org/2000/svg" viewBox="0 0 380 33"><style>.st0{fill:#2C3549;} .st1{fill:#FFFFFF;} .st2{fill:#56585E;} .st3{fill:none;stroke:#FFFFFF;stroke-width:1.3;stroke-miterlimit:10;} .st4{fill:#8A8A8E;} .st5{fill:#F98B75;} .st6{fill:#FC9F8D;} .st7{fill:#FC7653;} .st8{fill:#7996B2;} .st9{fill:#2A405B;} .st10{fill:#4E6882;} .st11{fill-rule:evenodd;clip-rule:evenodd;fill:#FFFFFF;} .st12{opacity:0.9;} .st13{fill:#FFFDFD;} .st14{fill:#D6D6D8;} .st15{opacity:0.95;fill:#FCFCFC;} .st16{fill:#EBECED;} .st17{fill:#949399;stroke:#DEDFE0;stroke-width:0.5;} .st18{opacity:0.95;fill:#FC7653;}</style><circle class="st14" cx="122.7" cy="16.5" r="16.4"/><path class="st14" d="M0 .7h23.8v6.2H6.9v6.4h14.9v6.2H6.9v6.6H24v6.2H0V.7zm33.3 0h6.4l14.8 19.4V.7h6.8v31.5h-5.9l-15.3-20v20h-6.8V.7zm37.2 15.9c0-9 6.8-16.4 16.4-16.4 5.9 0 9.5 2 12.4 4.9L95 10.2c-2.4-2.2-4.9-3.6-8.1-3.6-5.3 0-9.1 4.4-9.1 9.8v.1c0 5.4 3.7 9.9 9.1 9.9 3.6 0 5.8-1.4 8.3-3.7l4.4 4.5c-3.2 3.5-6.8 5.6-12.9 5.6-9.3 0-16.2-7.2-16.2-16.2zM148.7.7h14.4c4 0 7.1 1.1 9.2 3.2 1.8 1.8 2.7 4.2 2.7 7.2v.1c0 5.1-2.7 8.3-6.8 9.8l7.7 11.3h-8.1L161 22.2h-5.4v10.1h-6.9V.7zm14 15.3c3.4 0 5.3-1.8 5.3-4.5v-.1c0-3-2.1-4.5-5.4-4.5h-6.9v9h7zM184.4.7h23.8v6.2h-16.9v6.4h14.9v6.2h-14.9v6.6h17.1v6.2h-24V.7z"/><path class="st18" d="M228.4.5h6.4l13.5 31.7h-7.2l-2.9-7.1h-13.3l-2.9 7.1h-7.1L228.4.5zm7.3 18.6l-4.2-10.2-4.2 10.2h8.4zM256.3.7h6.9V26h15.7v6.3h-22.6V.7zm30.9 0H311v6.2h-16.9v6.4H309v6.2h-14.9v6.6h17.1v6.2h-24V.7zm33.3 0h14.4c4 0 7.1 1.1 9.2 3.2 1.8 1.8 2.7 4.2 2.7 7.2v.1c0 5.1-2.7 8.3-6.8 9.8l7.7 11.3h-8.1l-6.8-10.1h-5.4v10.1h-6.9V.7zm14 15.3c3.4 0 5.3-1.8 5.3-4.5v-.1c0-3-2.1-4.5-5.4-4.5h-6.9v9h7zm29-8.9h-9.6V.7H380v6.4h-9.6v25.1h-6.9V7.1z"/><path class="st16" d="M130.9 21c-3.5-4.5-.9-11.5-6.6-12.5 0-.8-.7-1.5-1.5-1.5s-1.5.6-1.5 1.5c-5.8 1-3.2 8-6.6 12.5-.2.2-.3.4-.3.6 0 2.1 7.5 2.2 8.4 2.2.9 0 8.4-.1 8.4-2.2-.1-.2-.2-.5-.3-.6zm-8.2-13.3c.4 0 .8.3.8.7h-1.6c.1-.4.4-.7.8-.7zm0 15.1c-4.3 0-7-.7-7.4-1.2.4-.5 3-1.2 7.4-1.2s7 .7 7.4 1.2c-.4.4-3 1.2-7.4 1.2z"/><path class="st17" d="M129.8 22.2c0 .9-3.2 1.6-7.1 1.6-3.9 0-7.1-.7-7.1-1.6 0-.9 3.2-1.6 7.1-1.6 3.9 0 7.1.7 7.1 1.6z"/></svg>