<svg id="Layer_1" xmlns="http://www.w3.org/2000/svg" viewBox="0 0 100 100"><style>.st0{fill:#2C3549;} .st1{fill:#FFFFFF;} .st2{fill:#56585E;} .st3{fill:none;stroke:#FFFFFF;stroke-width:1.3;stroke-miterlimit:10;} .st4{fill:#8A8A8E;} .st5{fill:#F98B75;} .st6{fill:#FC9F8D;} .st7{fill:#FC7653;} .st8{fill:#7996B2;} .st9{fill:#2A405B;} .st10{fill:#4E6882;} .st11{fill-rule:evenodd;clip-rule:evenodd;fill:#FFFFFF;} .st12{opacity:0.9;} .st13{fill:#FFFDFD;} .st14{fill:#D6D6D8;} .st15{opacity:0.95;fill:#FCFCFC;} .st16{fill:#EBECED;} .st17{fill:#949399;stroke:#DEDFE0;stroke-width:0.5;} .st18{opacity:0.95;fill:#FC7653;}</style><circle class="st0" cx="50.3" cy="50.2" r="50"/><path class="st1" d="M35.7 76h28.6V22.6H35.7V76zm31.1 2.5H33.2V20.1h33.5v58.4z"/><path class="st1" d="M66.8 76h9.9V32.5h-9.9V76zm12.4 2.5H64.3V30h14.9v48.5zM23.3 76h9.9V32.5h-9.9V76zm12.4 2.5H20.8V30h14.9v48.5zM45 76h10v-7.5H45V76zm12.5 2.5h-15V66.1h14.9v12.4z"/><path class="st1" d="M70.5 36.2H73v6.2h-2.5zm-11.8-7.4h2.5V35h-2.5zm-6.6 0h2.5V35h-2.5zm-6.7 0h2.5V35h-2.5zm-6.6 0h2.5V35h-2.5zm19.9 12.4h2.5v6.2h-2.5zm-6.6 0h2.5v6.2h-2.5zm-6.7 0h2.5v6.2h-2.5zm-6.6 0h2.5v6.2h-2.5zm19.9 12.4h2.5v6.2h-2.5zm-6.6 0h2.5v6.2h-2.5zm-6.7 0h2.5v6.2h-2.5zm-6.6 0h2.5v6.2h-2.5zm31.7-7.4H73v6.2h-2.5zm0 9.9H73v6.2h-2.5zm0 10H73v6.2h-2.5zM27 36.2h2.5v6.2H27zm0 10h2.5v6.2H27zm0 9.9h2.5v6.2H27zm0 10h2.5v6.2H27z"/></svg>