<svg id="Layer_1" xmlns="http://www.w3.org/2000/svg" viewBox="0 0 100 100"><style>.st0{fill:#2C3549;} .st1{fill:#FFFFFF;} .st2{fill:#56585E;} .st3{fill:none;stroke:#FFFFFF;stroke-width:1.3;stroke-miterlimit:10;} .st4{fill:#8A8A8E;} .st5{fill:#F98B75;} .st6{fill:#FC9F8D;} .st7{fill:#FC7653;} .st8{fill:#7996B2;} .st9{fill:#2A405B;} .st10{fill:#4E6882;} .st11{fill-rule:evenodd;clip-rule:evenodd;fill:#FFFFFF;} .st12{opacity:0.9;} .st13{fill:#FFFDFD;} .st14{fill:#D6D6D8;} .st15{opacity:0.95;fill:#FCFCFC;} .st16{fill:#EBECED;} .st17{fill:#949399;stroke:#DEDFE0;stroke-width:0.5;} .st18{opacity:0.95;fill:#FC7653;}</style><circle class="st7" cx="50" cy="50" r="50"/><path class="st1" d="M67.6 71.4c-5.3 2.1-11 3.3-17.1 3.3-6.9 0-13.5-1.5-19.3-4.2v-2.1c0-2 .4-4.9 3.1-6 2.2 2.1 4.7 3.8 7.5 4.9 2.8 1.1 5.7 1.7 8.7 1.7 4.1 0 8.1-1.1 11.7-3.1l1.6 1.6 3.8 3.9zM44.2 58c.1-.4.2-.9.3-1.3-1.2-1.6-1.8-3.6-2.1-5.2-.5 0-1.1-.7-1.7-3-.8-3-.1-3.6.7-3.6h.1c-.6-1.7-.6-3.3-.2-4.8.4-1.8 1.4-3.2 2.4-4.3.7-.7 1.4-1.4 2.2-1.9.7-.5 1.4-.9 2.2-1.1.6-.2 1.3-.3 2-.4h.9c1.7 0 3.1.5 4.1 1.1 1.8 1 2.4 2.3 2.4 2.3s4.4.3 2.5 9.7c.6.2 1 1 .3 3.5-.7 2.4-1.3 3-1.7 3-.1 0-.2 0-.3-.1-.3 1.5-.8 3.3-1.9 4.8.1.4.1.8.3 1.3-1.9 1-4.1 1.5-6.3 1.5s-4.3-.5-6.2-1.5zm-12.5 1.5c-.4.3-.9.6-1.2.9-.8.8-1.5 1.7-2 2.8-.6 1.4-.9 3.1-1 4.9-5.6-.1-10.9-1.4-15.6-3.6v-1.7c0-1.8.4-4.5 3.1-5.2 4.1-1 7.5-2.6 7.5-2.6.4-.6.6-1.5.7-2.1-1-1.4-1.5-3-1.7-4.4-.4 0-.9-.6-1.4-2.5-.7-2.7 0-3.1.7-3-.5-1.4-.5-2.8-.2-4.1.3-1.5 1.2-2.7 2.1-3.6.6-.6 1.2-1.1 1.9-1.6.6-.4 1.2-.7 1.8-1 .5-.2 1.1-.3 1.7-.3 1.3-.1 2.4.1 3.2.4-.9 1.4-1.7 2.8-2.4 4.4-1.1 2.8-1.7 5.7-1.7 8.7 0 3 .6 5.9 1.7 8.7.7 1.8 1.7 3.4 2.8 4.9zm57.4 4.1c0 .1 0 .1 0 0v.9c-2.8 1.3-5.7 2.2-8.8 2.9l-9.8-9.8c2.2-3.8 3.3-8.1 3.1-12.6-.2-4.3-1.5-8.3-3.8-11.8.3-.2.7-.3 1.1-.5.5-.2 1.1-.3 1.7-.3 1.8-.2 3.2.3 4.2.9 1.5.8 2.1 1.9 2.1 1.9s3.7.3 2.1 8.2c.5.2.9.9.3 3-.7 2.6-1.4 2.7-1.8 2.4-.2 1.3-.7 2.8-1.6 4 .1.6.3 1.6.7 2.2 0 0 3.4 1.5 7.5 2.6 2.7.7 3.1 3.4 3.1 5.2-.1.3-.1.6-.1.8zm-26.9-5.9c-3.3 3.3-7.5 4.9-11.8 4.9-4.3 0-8.5-1.6-11.8-4.9-6.5-6.5-6.5-17.1 0-23.6 3.3-3.3 7.5-4.9 11.8-4.9 4.3 0 8.5 1.6 11.8 4.9 6.5 6.6 6.5 17.1 0 23.6zm2.7 6.6l12.6 12.6c.5.5 1.3.8 2 .8s1.4-.3 2-.8c1.1-1.1 1.1-2.8 0-3.9L68.1 59.8l-.8.8-1.7-1.7c6.7-7.9 6.3-19.7-1.1-27.1-3.9-3.9-9-5.9-14.2-5.9-5.1 0-10.2 2-14.2 5.9-7.8 7.8-7.8 20.5 0 28.3C40 64 45.1 66 50.3 66c4.6 0 9.2-1.6 12.9-4.7l1.7 1.7-.8.8.8.5z"/></svg>