<?xml version="1.0" encoding="utf-8"?>
<!-- Generator: Adobe Illustrator 19.1.0, SVG Export Plug-In . SVG Version: 6.00 Build 0)  -->
<svg version="1.1" id="Layer_1" xmlns="http://www.w3.org/2000/svg" xmlns:xlink="http://www.w3.org/1999/xlink" x="0px" y="0px"
	 viewBox="0 0 371 69.8" style="enable-background:new 0 0 371 69.8;" xml:space="preserve">
<style type="text/css">
	.st0{fill:#FFFFFF;}
	.st1{fill:#C6C6C6;}
	.st2{fill:#949399;stroke:#DEDFE0;stroke-width:1.5;}
</style>
<g>
	<circle class="st0" cx="216.9" cy="34.9" r="34.9"/>
	<path class="st0" d="M0,1.6h50v13H14v13h32v13H14v15h37v13H0V1.6z"/>
	<path class="st0" d="M56,1.6h13.4L101,42.5V1.6h15v67h-13.2L71,25.6v43H56V1.6z"/>
	<path class="st0" d="M121,34.9v-0.2C121,15.6,135.3,0,155.9,0c12.7,0,20.2,4.2,26.4,10.4l-9.4,10.8c-5.2-4.7-10.6-7.6-17.3-7.6
		c-11.3,0-19.6,9.4-19.6,20.9v0.2c0,11.5,8.1,21.1,19.6,21.1c7.7,0,12.4-3.1,17.7-7.9l9.4,9.5c-6.9,7.4-14.4,12-27.4,12
		C135.5,69.4,121,54.1,121,34.9z"/>
	<path class="st0" d="M257,1.6h30.6c8.5,0,15.2,2.2,19.6,6.6c3.7,3.7,5.8,8.8,5.8,15.1v0.2c0,10.8-5.9,17.8-14.4,21l16.3,24.1h-17.3
		l-14.4-22H272v22h-15V1.6z M286.6,33.6c7.2,0,11.4-3.7,11.4-9.3v-0.2c0-6.3-4.5-9.5-11.7-9.5H272v19H286.6z"/>
	<path class="st0" d="M320,1.6h50v13h-36v13h32v13h-32v15h37v13h-51V1.6z"/>
	<path class="st1" d="M233.9,45.3L233.9,45.3c-7.4-9.7-1.8-24.5-14.1-26.6c0-1.8-1.5-3.1-3.2-3.1c-1.7,0-3.1,1.3-3.2,3.1
		c-12.3,2.1-6.7,16.9-14.1,26.6l0,0c-0.4,0.4-0.6,0.8-0.6,1.3c0,4.5,16,4.6,17.9,4.6c1.9,0,17.9-0.1,17.9-4.6
		C234.4,46.2,234.2,45.7,233.9,45.3z M216.5,17c0.9,0,1.6,0.7,1.8,1.5c-0.6,0-1.1-0.1-1.8-0.1c-0.6,0-1.2,0-1.7,0.1
		C214.9,17.7,215.7,17,216.5,17z M216.6,49.2c-9.2,0-14.9-1.5-15.7-2.5c0.8-1,6.4-2.5,15.7-2.5c9.3,0,14.9,1.5,15.7,2.5
		C231.5,47.6,225.8,49.2,216.6,49.2z"/>
	<path class="st2" d="M233.3,47.8c0,2.1-7.5,3.7-16.7,3.7c-9.2,0-16.7-1.7-16.7-3.7c0-2,7.5-3.7,16.7-3.7
		C225.8,44.1,233.3,45.8,233.3,47.8z"/>
</g>
</svg>
